<svg xmlns="http://www.w3.org/2000/svg" viewBox="0 0 64 44" shape-rendering="crispEdges" role="img" aria-label="pixel dog">
  <path fill="#2d221d" d="M16 20h26v4H16zM12 24h34v10H12zM18 34h6v6h-6zM38 34h6v6h-6z"/>
  <path fill="#d8a06f" d="M18 12h20v10H18zM16 18h28v12H16zM18 28h28v8H18z"/>
  <path fill="#2d221d" d="M16 10h6v8h-6zM34 10h6v8h-6zM24 20h4v4h-4zM34 20h4v4h-4z"/>
  <path fill="#fff0d7" d="M26 24h10v8H26zM28 32h6v4h-6z"/>
  <path fill="#2d221d" d="M30 26h4v4h-4zM34 30h4v2h-4z"/>
  <path fill="#d8a06f" d="M46 22h6v4h-6zM52 18h4v4h-4zM56 14h4v4h-4z"/>
  <path fill="#2d221d" d="M46 26h4v4h-4zM50 22h4v4h-4zM54 18h4v4h-4z"/>
  <path fill="#f4c08b" d="M20 34h4v6h-4zM40 34h4v6h-4z"/>
</svg>
